<svg xmlns="http://www.w3.org/2000/svg" viewBox="0 0 128 128" width="100" height="100">
    <defs>
        <style>
            .cls-1{fill:#000;opacity:0.3;}.cls-1,.cls-4{isolation:isolate;}.cls-2{fill:#3e2add;}.cls-3{fill:#cccc2b;}.cls-4{fill:#151515;}
        </style>
    </defs>
    <title>resource</title>
    <g id="Layer_2" data-name="Layer 2">
        <g id="Слой_1" data-name="Слой 1">
            <path class="cls-1"
                  d="M123.53,75.09l.43.54c10.66,13.26-1.17,31.64-19.2,29.86l-.17,0c-9.09-.9-17.77,3.64-21.43,11.21h0c-7.31,15.09-31,15.09-38.32,0h0c-3.66-7.57-12.34-12.11-21.43-11.21l-.17,0C5.21,107.27-6.62,88.89,4,75.63l.43-.54a17.43,17.43,0,0,0,0-22.18L4,52.37C-6.62,39.11,5.21,20.73,23.24,22.51l.17,0c9.09.9,17.77-3.64,21.43-11.21h0c7.31-15.09,31-15.09,38.32,0h0c3.66,7.57,12.34,12.11,21.43,11.21l.17,0c18-1.78,29.86,16.6,19.2,29.86l-.43.54A17.43,17.43,0,0,0,123.53,75.09Z"/>
            <path class="cls-2"
                  d="M97.44,60.22,115.51,37a.31.31,0,0,0-.32-.48L85,39.59a.35.35,0,0,0-.26.15l-12.27,20a.31.31,0,0,0,.3.45H97.44"/>
            <path class="cls-3"
                  d="M76.63,39.61,64.31,13.28a.35.35,0,0,0-.62,0L51.43,39.47a.29.29,0,0,0,0,.27l12.25,20a.36.36,0,0,0,.6,0L76.63,39.61"/>
            <path class="cls-2"
                  d="M43.19,39.61,12.81,36.49a.31.31,0,0,0-.31.48l18,23.12a.33.33,0,0,0,.28.13H55.25a.31.31,0,0,0,.3-.45L43.19,39.61"/>
            <path class="cls-2"
                  d="M30.56,67.92,12.5,91.18a.31.31,0,0,0,.31.48L43,88.56a.33.33,0,0,0,.26-.16l12.27-20a.31.31,0,0,0-.3-.46H30.56"/>
            <path class="cls-3"
                  d="M51.37,88.54l12.32,26.34a.35.35,0,0,0,.62,0l12.26-26.2a.26.26,0,0,0,0-.27l-12.25-20a.36.36,0,0,0-.6,0L51.37,88.54"/>
            <path class="cls-2"
                  d="M84.81,88.54l30.38,3.11a.31.31,0,0,0,.32-.48l-18-23.12a.36.36,0,0,0-.28-.13H72.75a.31.31,0,0,0-.3.46L84.81,88.54"/>
            <path class="cls-4"
                  d="M80.57,67.09l.12.15c3,3.69-.33,8.8-5.35,8.31h0a5.94,5.94,0,0,0-6,3.12h0c-2,4.2-8.63,4.2-10.66,0h0a5.94,5.94,0,0,0-6-3.12h0c-5,.49-8.31-4.62-5.35-8.31l.12-.15a4.86,4.86,0,0,0,0-6.18l-.12-.15c-3-3.69.33-8.8,5.35-8.31h0a5.94,5.94,0,0,0,6-3.12h0c2-4.2,8.63-4.2,10.66,0h0a5.94,5.94,0,0,0,6,3.12h0c5-.49,8.31,4.62,5.35,8.31l-.12.15A4.86,4.86,0,0,0,80.57,67.09Z"/>
        </g>
    </g>
</svg>
