<svg xmlns="http://www.w3.org/2000/svg" viewBox="0 0 128 128" width="128" height="128"><defs><style>.cls-1{fill:#151515;}.cls-1,.cls-2,.cls-3,.cls-5{isolation:isolate;}.cls-2{fill:#3e2aa0;}.cls-2,.cls-3{stroke:#090909;stroke-miterlimit:10;stroke-width:5.57px;opacity:0.4;}.cls-3{fill:#9e902b;}.cls-4{opacity:0.6;}.cls-5{fill:#090909;}</style></defs><title>structure_body</title><g id="Layer_2" data-name="Layer 2"><g id="Слой_1" data-name="Слой 1"><polygon class="cls-1" points="81.76 37.36 99.53 64.01 81.76 90.66 46.24 90.66 28.48 64.01 46.24 37.36 81.76 37.36"/><polygon class="cls-2" points="81.76 90.65 99.53 64 117.29 90.64 81.76 90.65"/><polygon class="cls-3" points="46.24 90.65 81.76 90.65 64 117.29 46.24 90.65"/><polygon class="cls-2" points="28.48 64 10.71 90.64 46.24 90.65 28.48 64"/><polygon class="cls-2" points="46.24 37.36 28.48 64 10.71 37.37 46.24 37.36"/><polygon class="cls-3" points="81.76 37.35 46.24 37.35 64 10.71 81.76 37.35"/><polygon class="cls-2" points="99.53 64 117.29 37.37 81.76 37.36 99.53 64"/><g class="cls-4"><polygon class="cls-5" points="128 96 85.33 96.01 85.33 96 64 128 90.86 102.3 128 96"/><polygon class="cls-5" points="0 96 42.67 96.01 42.67 96 64 128 37.34 102.63 0 96"/><polygon class="cls-5" points="0 32.01 21.33 64 0 96 13.18 64 0 32.01"/><polygon class="cls-5" points="0 32.01 42.67 32 42.67 32 64 0 38.22 25.39 0 32.01"/><polygon class="cls-5" points="128 32.01 106.67 64 128 96 117.29 64 128 32.01"/><polygon class="cls-5" points="128 32.01 85.33 32 85.33 32 64 0 90.69 24.73 128 32.01"/></g></g></g></svg>
