<svg xmlns="http://www.w3.org/2000/svg" viewBox="0 0 45.66 43.68" width="128" height="128"><defs><style>.cls-1{fill:#3e2aa0;}.cls-2{fill:#9e902b;}</style></defs><title>structure_core</title><g id="Layer_2" data-name="Layer 2"><g id="Слой_1" data-name="Слой 1"><path class="cls-1" d="M8,23.49l-8,10c-.08.09,0,.22.14.21l13.37-1.33a.19.19,0,0,0,.12-.07l5.43-8.58a.13.13,0,0,0-.13-.19H8"/><path class="cls-2" d="M17.24,32.32,22.69,43.6a.16.16,0,0,0,.28,0l5.42-11.22a.11.11,0,0,0,0-.11L23,23.7a.16.16,0,0,0-.26,0l-5.46,8.62"/><path class="cls-1" d="M32,32.32l13.45,1.34a.14.14,0,0,0,.14-.21l-8-9.9a.16.16,0,0,0-.13-.06H26.7c-.11,0-.19.11-.13.19L32,32.32"/><path class="cls-1" d="M37.63,20.19l8-10a.13.13,0,0,0-.14-.2L32.12,11.35a.16.16,0,0,0-.12.07L26.57,20c-.06.08,0,.19.13.19H37.63"/><path class="cls-2" d="M28.42,11.36,23,.08a.16.16,0,0,0-.28,0L17.26,11.3a.14.14,0,0,0,0,.11L22.7,20A.16.16,0,0,0,23,20l5.46-8.62"/><path class="cls-1" d="M13.62,11.36.17,10c-.13,0-.22.11-.14.2l8,9.91a.17.17,0,0,0,.12.05H19a.13.13,0,0,0,.13-.19l-5.47-8.64"/></g></g></svg>
